# xmcd
#
# Track frame offsets:
#	182
#	19380
#	36650
#	56905
#	73397
#	93650
#	110757
#	127425
#	146487
#	164180
#
# Disc length: 2416 seconds
#
# Revision: 0
# Processed by: cddbd v1.4PL0 Copyright (c) Steve Scherf et al.
# Submitted via: EasyCDDAExtractor 4.6.9.1
#
DISCID=b1096e0a
DTITLE=Nucha - Anda (Que Eu Vou Ficar A Janela)
DYEAR=1997
DGENRE=
TTITLE0=Anda (quevou ficar a janela)
TTITLE1=O Grande Sinal Da Partida
TTITLE2=Cocoloco
TTITLE3=O Que E Preciso E Saudinha
TTITLE4=Eu Acordei Sem Ti
TTITLE5=Mulher De Uma Noite So
TTITLE6=O Jogo Do Beijo
TTITLE7=Comigo Erraste
TTITLE8=E Tarde P'ra Voltar
TTITLE9=Agora Sei O QueE Sofrer
EXTD=
EXTT0=
EXTT1=
EXTT2=
EXTT3=
EXTT4=
EXTT5=
EXTT6=
EXTT7=
EXTT8=
EXTT9=
PLAYORDER=
